# xmcd CD database file
#
# Track frame offsets:
#	150
#	18284
#	36163
#	50985
#	65464
#	84184
#	103413
#	123985
#	136234
#	153877
#	169657
#	187221
#	202151
#	220969
#	235593
#	255477
#	271415
#	288419
#	308208
#
# Disc length: 4393 seconds
#
# Revision: 2
# Processed by: cddbd v1.5.1PL0 Copyright (c) Steve Scherf et al.
# Submitted via: CDex 1.51
#
DISCID=17112713
DTITLE=Various Artist - Solo Hits
DYEAR=2004
DGENRE=Compilatrion
TTITLE0=Dido - White Flag
TTITLE1=Outkast - Hey Ya (Radio Mix)
TTITLE2=Articolo 31 - La Mia Ragazza Mena
TTITLE3=Pink - Trouble
TTITLE4=Le Vibrazioni - Vieni Da Me
TTITLE5=The Rasmus - In The Shadows
TTITLE6=Eros Ramazzotti - Un Attimo Di Pace
TTITLE7=Max De Angelis - La Soluzione
TTITLE8=Sean Paul - Like Glue (Album Version)
TTITLE9=Blu Cantrell Feat. Ian Lewis - Make Me Wanna Scream (Radio Mix)
TTITLE10=Peplab - Wondergirl (Sam Paganini Radio Remix)
TTITLE11=Paolo Meneguzzi - Lei È
TTITLE12=Gemelli Diversi - Tu Corri (Radio Edit)
TTITLE13=Kosheen - Wasting My Time (Radio Edit)
TTITLE14=Samuele Bersani - Cattiva
TTITLE15=Ulivieri - Io Ti Amo... Ma Devo Ucciderti (Radio Edit)
TTITLE16=Irene Nonis - Talk and Touch
TTITLE17=Christina Aguilera - The Voice Within
TTITLE18=Giorgia - L'eternità
EXTD=YEAR: 2004
EXTT0=
EXTT1=
EXTT2=
EXTT3=
EXTT4=
EXTT5=
EXTT6=
EXTT7=
EXTT8=
EXTT9=
EXTT10=
EXTT11=
EXTT12=
EXTT13=
EXTT14=
EXTT15=
EXTT16=
EXTT17=
EXTT18=
PLAYORDER=
